<svg xmlns="http://www.w3.org/2000/svg" xmlns:xlink="http://www.w3.org/1999/xlink" width="500" zoomAndPan="magnify" viewBox="0 0 375 374.999991" height="500" preserveAspectRatio="xMidYMid meet" version="1.0"><defs><g/><clipPath id="d4b6ecbb09"><path d="M 180.226562 90.179688 L 199.269531 90.179688 L 199.269531 109.21875 L 180.226562 109.21875 Z M 180.226562 90.179688 " clip-rule="nonzero"/></clipPath><clipPath id="cec085908f"><path d="M 189.746094 90.179688 C 184.488281 90.179688 180.226562 94.441406 180.226562 99.699219 C 180.226562 104.957031 184.488281 109.21875 189.746094 109.21875 C 195.007812 109.21875 199.269531 104.957031 199.269531 99.699219 C 199.269531 94.441406 195.007812 90.179688 189.746094 90.179688 Z M 189.746094 90.179688 " clip-rule="nonzero"/></clipPath><clipPath id="ffe19d80bc"><path d="M 136.425781 179.367188 L 148.835938 179.367188 L 148.835938 191.773438 L 136.425781 191.773438 Z M 136.425781 179.367188 " clip-rule="nonzero"/></clipPath><clipPath id="a89cb72649"><path d="M 142.632812 179.367188 C 139.203125 179.367188 136.425781 182.144531 136.425781 185.570312 C 136.425781 188.996094 139.203125 191.773438 142.632812 191.773438 C 146.058594 191.773438 148.835938 188.996094 148.835938 185.570312 C 148.835938 182.144531 146.058594 179.367188 142.632812 179.367188 Z M 142.632812 179.367188 " clip-rule="nonzero"/></clipPath><clipPath id="6dd353119c"><path d="M 113.328125 244.480469 L 129.445312 244.480469 L 129.445312 260.597656 L 113.328125 260.597656 Z M 113.328125 244.480469 " clip-rule="nonzero"/></clipPath><clipPath id="ba8af64dec"><path d="M 121.386719 244.480469 C 116.933594 244.480469 113.328125 248.089844 113.328125 252.539062 C 113.328125 256.988281 116.933594 260.597656 121.386719 260.597656 C 125.835938 260.597656 129.445312 256.988281 129.445312 252.539062 C 129.445312 248.089844 125.835938 244.480469 121.386719 244.480469 Z M 121.386719 244.480469 " clip-rule="nonzero"/></clipPath></defs><g fill="#000000" fill-opacity="1"><g transform="translate(98.706913, 259.289529)"><g><path d="M 0.90625 0 L 0.90625 -0.25 L 1.15625 -0.25 C 1.695312 -0.25 2.097656 -0.46875 2.359375 -0.90625 C 2.484375 -1.101562 2.550781 -1.328125 2.5625 -1.578125 L 2.5625 -13.515625 C 2.550781 -14.035156 2.316406 -14.421875 1.859375 -14.671875 C 1.640625 -14.785156 1.40625 -14.84375 1.15625 -14.84375 L 0.875 -14.84375 L 0.875 -15.109375 L 7.859375 -15.109375 L 7.859375 -14.84375 L 7.578125 -14.84375 C 7.203125 -14.84375 6.875 -14.71875 6.59375 -14.46875 C 6.320312 -14.21875 6.179688 -13.910156 6.171875 -13.546875 L 6.171875 -1.578125 C 6.179688 -1.210938 6.320312 -0.898438 6.59375 -0.640625 C 6.863281 -0.378906 7.191406 -0.25 7.578125 -0.25 L 7.828125 -0.25 L 7.859375 0 Z M 17.5 0 L 15.5625 0 C 13.226562 0 11.566406 -0.644531 10.578125 -1.9375 C 10.492188 -2.070312 10.125 -2.582031 9.46875 -3.46875 C 7.769531 -5.832031 6.921875 -7.023438 6.921875 -7.046875 L 12.078125 -13.890625 C 12.265625 -14.128906 12.296875 -14.351562 12.171875 -14.5625 C 12.054688 -14.769531 11.859375 -14.875 11.578125 -14.875 L 11.359375 -14.875 L 11.359375 -15.109375 L 16.484375 -15.109375 L 16.484375 -14.875 L 16.390625 -14.875 C 15.484375 -14.875 14.726562 -14.570312 14.125 -13.96875 L 9.9375 -9.03125 L 15.234375 -1.6875 C 15.898438 -0.726562 16.65625 -0.238281 17.5 -0.21875 Z M 17.5 0 "/></g></g></g><g fill="#000000" fill-opacity="1"><g transform="translate(115.640506, 259.289529)"><g/></g></g><g fill="#000000" fill-opacity="1"><g transform="translate(121.930556, 259.289529)"><g/></g></g><g fill="#000000" fill-opacity="1"><g transform="translate(128.226442, 259.289529)"><g><path d="M 17.25 -14.84375 L 16.890625 -14.84375 C 16.566406 -14.84375 16.296875 -14.742188 16.078125 -14.546875 C 15.859375 -14.359375 15.742188 -14.113281 15.734375 -13.8125 L 15.734375 -5.484375 C 15.734375 -3.671875 15.175781 -2.25 14.0625 -1.21875 C 12.957031 -0.1875 11.3125 0.328125 9.125 0.328125 C 6.9375 0.328125 5.234375 -0.171875 4.015625 -1.171875 C 2.796875 -2.179688 2.1875 -3.601562 2.1875 -5.4375 L 2.1875 -13.796875 C 2.1875 -14.097656 2.070312 -14.347656 1.84375 -14.546875 C 1.625 -14.742188 1.351562 -14.84375 1.03125 -14.84375 L 0.671875 -14.84375 L 0.671875 -15.109375 L 7.296875 -15.109375 L 7.296875 -14.84375 L 6.953125 -14.84375 C 6.628906 -14.84375 6.359375 -14.742188 6.140625 -14.546875 C 5.921875 -14.347656 5.8125 -14.097656 5.8125 -13.796875 L 5.8125 -5.609375 C 5.8125 -4.066406 6.164062 -2.859375 6.875 -1.984375 C 7.59375 -1.109375 8.597656 -0.671875 9.890625 -0.671875 C 11.179688 -0.671875 12.203125 -1.082031 12.953125 -1.90625 C 13.703125 -2.726562 14.078125 -3.875 14.078125 -5.34375 L 14.078125 -13.796875 C 14.054688 -14.109375 13.9375 -14.359375 13.71875 -14.546875 C 13.5 -14.742188 13.226562 -14.84375 12.90625 -14.84375 L 12.578125 -14.84375 L 12.578125 -15.109375 L 17.25 -15.109375 Z M 17.25 -14.84375 "/></g></g></g><g fill="#000000" fill-opacity="1"><g transform="translate(145.939217, 259.289529)"><g><path d="M 14.578125 -11.53125 L 14.578125 -11.75 C 14.578125 -12.476562 14.375 -13.050781 13.96875 -13.46875 C 13.5625 -13.882812 13 -14.101562 12.28125 -14.125 L 9.359375 -14.125 L 9.359375 -1.5625 C 9.378906 -1.1875 9.519531 -0.875 9.78125 -0.625 C 10.050781 -0.375 10.375 -0.25 10.75 -0.25 L 11.03125 -0.25 L 11.03125 0 L 4.078125 0 L 4.078125 -0.25 L 4.328125 -0.25 C 4.710938 -0.25 5.039062 -0.375 5.3125 -0.625 C 5.582031 -0.875 5.71875 -1.191406 5.71875 -1.578125 L 5.71875 -14.125 L 2.8125 -14.125 C 2.082031 -14.101562 1.515625 -13.882812 1.109375 -13.46875 C 0.703125 -13.050781 0.5 -12.476562 0.5 -11.75 L 0.5 -11.53125 L 0.25 -11.53125 L 0.25 -15.5 C 0.488281 -15.414062 0.878906 -15.332031 1.421875 -15.25 C 1.960938 -15.164062 2.453125 -15.125 2.890625 -15.125 L 12.1875 -15.125 C 12.925781 -15.125 13.53125 -15.175781 14 -15.28125 C 14.476562 -15.394531 14.753906 -15.46875 14.828125 -15.5 L 14.828125 -11.53125 Z M 14.578125 -11.53125 "/></g></g></g><g fill="#000000" fill-opacity="1"><g transform="translate(161.010169, 259.289529)"><g><path d="M 1.15625 -2.0625 C 1.15625 -3.15625 1.398438 -4.085938 1.890625 -4.859375 L 2.09375 -4.859375 C 2.070312 -4.742188 2.0625 -4.632812 2.0625 -4.53125 C 2.0625 -3.507812 2.425781 -2.609375 3.15625 -1.828125 C 3.882812 -1.054688 4.90625 -0.671875 6.21875 -0.671875 C 7.15625 -0.671875 7.878906 -0.890625 8.390625 -1.328125 C 8.898438 -1.765625 9.15625 -2.25 9.15625 -2.78125 C 9.15625 -3.320312 9.007812 -3.753906 8.71875 -4.078125 C 8.425781 -4.410156 7.945312 -4.796875 7.28125 -5.234375 L 3.703125 -7.5 C 2.191406 -8.4375 1.4375 -9.644531 1.4375 -11.125 C 1.4375 -11.28125 1.441406 -11.441406 1.453125 -11.609375 C 1.554688 -12.796875 2.019531 -13.726562 2.84375 -14.40625 C 3.664062 -15.09375 4.632812 -15.4375 5.75 -15.4375 C 6.863281 -15.4375 8.039062 -15.359375 9.28125 -15.203125 L 10.640625 -15.203125 L 10.296875 -11.875 L 10.0625 -11.875 C 10.0625 -12.664062 9.789062 -13.285156 9.25 -13.734375 C 8.707031 -14.191406 7.984375 -14.421875 7.078125 -14.421875 C 6.179688 -14.421875 5.472656 -14.234375 4.953125 -13.859375 C 4.429688 -13.484375 4.171875 -12.984375 4.171875 -12.359375 C 4.171875 -11.859375 4.425781 -11.421875 4.9375 -11.046875 C 5.132812 -10.898438 5.425781 -10.707031 5.8125 -10.46875 L 9.8125 -8 C 11.1875 -7.164062 11.875 -6.007812 11.875 -4.53125 C 11.875 -2.96875 11.320312 -1.765625 10.21875 -0.921875 C 9.125 -0.0859375 7.707031 0.328125 5.96875 0.328125 C 4.894531 0.328125 3.945312 0.203125 3.125 -0.046875 C 2.300781 -0.296875 1.695312 -0.613281 1.3125 -1 C 1.207031 -1.300781 1.15625 -1.65625 1.15625 -2.0625 Z M 1.15625 -2.0625 "/></g></g></g><g fill="#000000" fill-opacity="1"><g transform="translate(173.942507, 259.289529)"><g/></g></g><g fill="#000000" fill-opacity="1"><g transform="translate(180.232557, 259.289529)"><g><path d="M 16.765625 -14.84375 L 16.5625 -14.84375 C 16.21875 -14.84375 15.867188 -14.738281 15.515625 -14.53125 C 15.160156 -14.320312 14.875 -14 14.65625 -13.5625 L 9.515625 -2.75 C 8.773438 -1.132812 8.390625 -0.109375 8.359375 0.328125 L 8.140625 0.328125 L 1.4375 -13.515625 C 0.988281 -14.398438 0.351562 -14.84375 -0.46875 -14.84375 L -0.640625 -14.84375 L -0.640625 -15.109375 L 6.734375 -15.109375 L 6.734375 -14.875 L 6.53125 -14.875 C 6.207031 -14.875 5.960938 -14.769531 5.796875 -14.5625 C 5.640625 -14.351562 5.5625 -14.160156 5.5625 -13.984375 C 5.5625 -13.804688 5.597656 -13.625 5.671875 -13.4375 L 9.1875 -5.265625 L 12.796875 -13.4375 C 12.878906 -13.644531 12.921875 -13.832031 12.921875 -14 C 12.921875 -14.164062 12.835938 -14.351562 12.671875 -14.5625 C 12.515625 -14.769531 12.28125 -14.875 11.96875 -14.875 L 11.765625 -14.875 L 11.765625 -15.109375 L 16.765625 -15.109375 Z M 16.765625 -14.84375 "/></g></g></g><g fill="#000000" fill-opacity="1"><g transform="translate(196.234441, 259.289529)"><g><path d="M 12.71875 0 L 0.859375 0 L 0.859375 -0.25 L 1.15625 -0.25 C 1.539062 -0.25 1.863281 -0.375 2.125 -0.625 C 2.382812 -0.875 2.523438 -1.1875 2.546875 -1.5625 L 2.546875 -13.546875 C 2.523438 -13.910156 2.382812 -14.21875 2.125 -14.46875 C 1.863281 -14.71875 1.539062 -14.84375 1.15625 -14.84375 L 0.859375 -14.84375 L 0.859375 -15.109375 L 9.71875 -15.109375 C 10.164062 -15.109375 10.65625 -15.148438 11.1875 -15.234375 C 11.726562 -15.316406 12.109375 -15.398438 12.328125 -15.484375 L 12.328125 -11.484375 L 12.078125 -11.484375 L 12.078125 -11.703125 C 12.078125 -12.441406 11.875 -13.019531 11.46875 -13.4375 C 11.070312 -13.863281 10.515625 -14.082031 9.796875 -14.09375 L 6.171875 -14.09375 L 6.171875 -7.984375 L 9.03125 -7.984375 C 9.601562 -7.992188 10.066406 -8.179688 10.421875 -8.546875 C 10.773438 -8.921875 10.953125 -9.394531 10.953125 -9.96875 L 10.953125 -10.140625 L 11.203125 -10.140625 L 11.203125 -4.8125 L 10.953125 -4.8125 L 10.953125 -4.984375 C 10.953125 -5.773438 10.65625 -6.347656 10.0625 -6.703125 C 9.757812 -6.878906 9.425781 -6.96875 9.0625 -6.96875 L 6.171875 -6.96875 L 6.171875 -1 L 9.1875 -1 C 10.226562 -1.019531 11.113281 -1.34375 11.84375 -1.96875 C 12.570312 -2.601562 13.101562 -3.488281 13.4375 -4.625 L 13.671875 -4.625 Z M 12.71875 0 "/></g></g></g><g fill="#000000" fill-opacity="1"><g transform="translate(210.399627, 259.289529)"><g><path d="M 12.03125 -15.109375 L 19.109375 -15.109375 L 19.109375 -14.84375 L 18.671875 -14.84375 C 18.285156 -14.84375 17.960938 -14.722656 17.703125 -14.484375 C 17.441406 -14.253906 17.304688 -13.957031 17.296875 -13.59375 L 17.296875 -2.59375 C 17.296875 -1.550781 17.363281 -0.695312 17.5 -0.03125 L 17.546875 0.328125 L 17.3125 0.328125 L 5.765625 -9.875 L 5.765625 -1.53125 C 5.785156 -1.164062 5.921875 -0.859375 6.171875 -0.609375 C 6.429688 -0.367188 6.757812 -0.25 7.15625 -0.25 L 7.578125 -0.25 L 7.578125 0 L 0.53125 0 L 0.53125 -0.25 L 0.9375 -0.25 C 1.320312 -0.25 1.644531 -0.367188 1.90625 -0.609375 C 2.175781 -0.859375 2.3125 -1.164062 2.3125 -1.53125 L 2.3125 -12.609375 C 2.3125 -13.617188 2.242188 -14.453125 2.109375 -15.109375 L 2.0625 -15.453125 L 2.296875 -15.4375 L 13.8125 -5.28125 L 13.8125 -13.5625 C 13.8125 -13.9375 13.679688 -14.242188 13.421875 -14.484375 C 13.160156 -14.722656 12.835938 -14.84375 12.453125 -14.84375 L 12.03125 -14.84375 Z M 12.03125 -15.109375 "/></g></g></g><g fill="#000000" fill-opacity="1"><g transform="translate(229.999419, 259.289529)"><g><path d="M 14.578125 -11.53125 L 14.578125 -11.75 C 14.578125 -12.476562 14.375 -13.050781 13.96875 -13.46875 C 13.5625 -13.882812 13 -14.101562 12.28125 -14.125 L 9.359375 -14.125 L 9.359375 -1.5625 C 9.378906 -1.1875 9.519531 -0.875 9.78125 -0.625 C 10.050781 -0.375 10.375 -0.25 10.75 -0.25 L 11.03125 -0.25 L 11.03125 0 L 4.078125 0 L 4.078125 -0.25 L 4.328125 -0.25 C 4.710938 -0.25 5.039062 -0.375 5.3125 -0.625 C 5.582031 -0.875 5.71875 -1.191406 5.71875 -1.578125 L 5.71875 -14.125 L 2.8125 -14.125 C 2.082031 -14.101562 1.515625 -13.882812 1.109375 -13.46875 C 0.703125 -13.050781 0.5 -12.476562 0.5 -11.75 L 0.5 -11.53125 L 0.25 -11.53125 L 0.25 -15.5 C 0.488281 -15.414062 0.878906 -15.332031 1.421875 -15.25 C 1.960938 -15.164062 2.453125 -15.125 2.890625 -15.125 L 12.1875 -15.125 C 12.925781 -15.125 13.53125 -15.175781 14 -15.28125 C 14.476562 -15.394531 14.753906 -15.46875 14.828125 -15.5 L 14.828125 -11.53125 Z M 14.578125 -11.53125 "/></g></g></g><g fill="#000000" fill-opacity="1"><g transform="translate(245.070371, 259.289529)"><g><path d="M 17.25 -14.84375 L 16.890625 -14.84375 C 16.566406 -14.84375 16.296875 -14.742188 16.078125 -14.546875 C 15.859375 -14.359375 15.742188 -14.113281 15.734375 -13.8125 L 15.734375 -5.484375 C 15.734375 -3.671875 15.175781 -2.25 14.0625 -1.21875 C 12.957031 -0.1875 11.3125 0.328125 9.125 0.328125 C 6.9375 0.328125 5.234375 -0.171875 4.015625 -1.171875 C 2.796875 -2.179688 2.1875 -3.601562 2.1875 -5.4375 L 2.1875 -13.796875 C 2.1875 -14.097656 2.070312 -14.347656 1.84375 -14.546875 C 1.625 -14.742188 1.351562 -14.84375 1.03125 -14.84375 L 0.671875 -14.84375 L 0.671875 -15.109375 L 7.296875 -15.109375 L 7.296875 -14.84375 L 6.953125 -14.84375 C 6.628906 -14.84375 6.359375 -14.742188 6.140625 -14.546875 C 5.921875 -14.347656 5.8125 -14.097656 5.8125 -13.796875 L 5.8125 -5.609375 C 5.8125 -4.066406 6.164062 -2.859375 6.875 -1.984375 C 7.59375 -1.109375 8.597656 -0.671875 9.890625 -0.671875 C 11.179688 -0.671875 12.203125 -1.082031 12.953125 -1.90625 C 13.703125 -2.726562 14.078125 -3.875 14.078125 -5.34375 L 14.078125 -13.796875 C 14.054688 -14.109375 13.9375 -14.359375 13.71875 -14.546875 C 13.5 -14.742188 13.226562 -14.84375 12.90625 -14.84375 L 12.578125 -14.84375 L 12.578125 -15.109375 L 17.25 -15.109375 Z M 17.25 -14.84375 "/></g></g></g><g fill="#000000" fill-opacity="1"><g transform="translate(262.783146, 259.289529)"><g><path d="M 7.125 -14.078125 L 6.3125 -14.078125 L 6.3125 -1.578125 C 6.3125 -1.179688 6.453125 -0.859375 6.734375 -0.609375 C 7.015625 -0.367188 7.328125 -0.25 7.671875 -0.25 L 7.953125 -0.25 L 7.953125 0 L 1.03125 0 L 1.03125 -0.25 L 1.328125 -0.25 C 1.703125 -0.25 2.019531 -0.375 2.28125 -0.625 C 2.539062 -0.875 2.671875 -1.1875 2.671875 -1.5625 L 2.671875 -13.546875 C 2.671875 -13.910156 2.539062 -14.21875 2.28125 -14.46875 C 2.019531 -14.71875 1.710938 -14.84375 1.359375 -14.84375 L 1.03125 -14.84375 L 1.03125 -15.109375 L 8.765625 -15.109375 C 10.273438 -15.109375 11.539062 -14.8125 12.5625 -14.21875 C 13.695312 -13.5625 14.265625 -12.476562 14.265625 -10.96875 C 14.265625 -10 13.972656 -9.125 13.390625 -8.34375 C 12.804688 -7.5625 11.9375 -7.085938 10.78125 -6.921875 C 11.226562 -6.773438 11.671875 -6.488281 12.109375 -6.0625 C 12.554688 -5.644531 12.914062 -5.21875 13.1875 -4.78125 C 13.726562 -3.820312 14.289062 -2.941406 14.875 -2.140625 C 15.457031 -1.347656 15.929688 -0.832031 16.296875 -0.59375 C 16.660156 -0.363281 17.101562 -0.25 17.625 -0.25 L 17.625 0 L 15.5 0 C 14.113281 0 13.046875 -0.164062 12.296875 -0.5 C 11.546875 -0.832031 10.878906 -1.472656 10.296875 -2.421875 C 9.390625 -3.859375 8.828125 -5 8.609375 -5.84375 C 8.410156 -6.34375 8.171875 -6.71875 7.890625 -6.96875 C 7.609375 -7.21875 7.34375 -7.363281 7.09375 -7.40625 L 7.09375 -7.609375 L 7.734375 -7.609375 C 9.160156 -7.617188 10.03125 -8.457031 10.34375 -10.125 C 10.414062 -10.375 10.453125 -10.585938 10.453125 -10.765625 C 10.453125 -10.953125 10.441406 -11.207031 10.421875 -11.53125 C 10.398438 -11.863281 10.289062 -12.234375 10.09375 -12.640625 C 9.90625 -13.054688 9.660156 -13.359375 9.359375 -13.546875 C 8.835938 -13.859375 8.300781 -14.023438 7.75 -14.046875 C 7.5625 -14.066406 7.351562 -14.078125 7.125 -14.078125 Z M 7.125 -14.078125 "/></g></g></g><g fill="#000000" fill-opacity="1"><g transform="translate(279.313392, 259.289529)"><g><path d="M 12.71875 0 L 0.859375 0 L 0.859375 -0.25 L 1.15625 -0.25 C 1.539062 -0.25 1.863281 -0.375 2.125 -0.625 C 2.382812 -0.875 2.523438 -1.1875 2.546875 -1.5625 L 2.546875 -13.546875 C 2.523438 -13.910156 2.382812 -14.21875 2.125 -14.46875 C 1.863281 -14.71875 1.539062 -14.84375 1.15625 -14.84375 L 0.859375 -14.84375 L 0.859375 -15.109375 L 9.71875 -15.109375 C 10.164062 -15.109375 10.65625 -15.148438 11.1875 -15.234375 C 11.726562 -15.316406 12.109375 -15.398438 12.328125 -15.484375 L 12.328125 -11.484375 L 12.078125 -11.484375 L 12.078125 -11.703125 C 12.078125 -12.441406 11.875 -13.019531 11.46875 -13.4375 C 11.070312 -13.863281 10.515625 -14.082031 9.796875 -14.09375 L 6.171875 -14.09375 L 6.171875 -7.984375 L 9.03125 -7.984375 C 9.601562 -7.992188 10.066406 -8.179688 10.421875 -8.546875 C 10.773438 -8.921875 10.953125 -9.394531 10.953125 -9.96875 L 10.953125 -10.140625 L 11.203125 -10.140625 L 11.203125 -4.8125 L 10.953125 -4.8125 L 10.953125 -4.984375 C 10.953125 -5.773438 10.65625 -6.347656 10.0625 -6.703125 C 9.757812 -6.878906 9.425781 -6.96875 9.0625 -6.96875 L 6.171875 -6.96875 L 6.171875 -1 L 9.1875 -1 C 10.226562 -1.019531 11.113281 -1.34375 11.84375 -1.96875 C 12.570312 -2.601562 13.101562 -3.488281 13.4375 -4.625 L 13.671875 -4.625 Z M 12.71875 0 "/></g></g></g><g fill="#000000" fill-opacity="1"><g transform="translate(293.478578, 259.289529)"><g><path d="M 1.15625 -2.0625 C 1.15625 -3.15625 1.398438 -4.085938 1.890625 -4.859375 L 2.09375 -4.859375 C 2.070312 -4.742188 2.0625 -4.632812 2.0625 -4.53125 C 2.0625 -3.507812 2.425781 -2.609375 3.15625 -1.828125 C 3.882812 -1.054688 4.90625 -0.671875 6.21875 -0.671875 C 7.15625 -0.671875 7.878906 -0.890625 8.390625 -1.328125 C 8.898438 -1.765625 9.15625 -2.25 9.15625 -2.78125 C 9.15625 -3.320312 9.007812 -3.753906 8.71875 -4.078125 C 8.425781 -4.410156 7.945312 -4.796875 7.28125 -5.234375 L 3.703125 -7.5 C 2.191406 -8.4375 1.4375 -9.644531 1.4375 -11.125 C 1.4375 -11.28125 1.441406 -11.441406 1.453125 -11.609375 C 1.554688 -12.796875 2.019531 -13.726562 2.84375 -14.40625 C 3.664062 -15.09375 4.632812 -15.4375 5.75 -15.4375 C 6.863281 -15.4375 8.039062 -15.359375 9.28125 -15.203125 L 10.640625 -15.203125 L 10.296875 -11.875 L 10.0625 -11.875 C 10.0625 -12.664062 9.789062 -13.285156 9.25 -13.734375 C 8.707031 -14.191406 7.984375 -14.421875 7.078125 -14.421875 C 6.179688 -14.421875 5.472656 -14.234375 4.953125 -13.859375 C 4.429688 -13.484375 4.171875 -12.984375 4.171875 -12.359375 C 4.171875 -11.859375 4.425781 -11.421875 4.9375 -11.046875 C 5.132812 -10.898438 5.425781 -10.707031 5.8125 -10.46875 L 9.8125 -8 C 11.1875 -7.164062 11.875 -6.007812 11.875 -4.53125 C 11.875 -2.96875 11.320312 -1.765625 10.21875 -0.921875 C 9.125 -0.0859375 7.707031 0.328125 5.96875 0.328125 C 4.894531 0.328125 3.945312 0.203125 3.125 -0.046875 C 2.300781 -0.296875 1.695312 -0.613281 1.3125 -1 C 1.207031 -1.300781 1.15625 -1.65625 1.15625 -2.0625 Z M 1.15625 -2.0625 "/></g></g></g><g fill="#000000" fill-opacity="1"><g transform="translate(306.410916, 259.289529)"><g/></g></g><g fill="#000000" fill-opacity="1"><g transform="translate(312.700966, 259.289529)"><g><path d="M 0.859375 -0.25 L 1.15625 -0.25 C 1.5625 -0.25 1.90625 -0.378906 2.1875 -0.640625 C 2.476562 -0.898438 2.625 -1.210938 2.625 -1.578125 L 2.625 -13.515625 C 2.625 -13.890625 2.476562 -14.203125 2.1875 -14.453125 C 1.90625 -14.710938 1.5625 -14.84375 1.15625 -14.84375 L 0.859375 -14.84375 L 0.859375 -15.109375 L 8 -15.109375 L 8 -14.84375 L 7.703125 -14.84375 C 7.316406 -14.84375 6.976562 -14.71875 6.6875 -14.46875 C 6.40625 -14.21875 6.257812 -13.910156 6.25 -13.546875 L 6.25 -1.578125 C 6.257812 -1.191406 6.40625 -0.875 6.6875 -0.625 C 6.976562 -0.375 7.316406 -0.25 7.703125 -0.25 L 8 -0.25 L 8 0 L 0.859375 0 Z M 0.859375 -0.25 "/></g></g></g><g fill="#000000" fill-opacity="1"><g transform="translate(321.557354, 259.289529)"><g><path d="M 12.03125 -15.109375 L 19.109375 -15.109375 L 19.109375 -14.84375 L 18.671875 -14.84375 C 18.285156 -14.84375 17.960938 -14.722656 17.703125 -14.484375 C 17.441406 -14.253906 17.304688 -13.957031 17.296875 -13.59375 L 17.296875 -2.59375 C 17.296875 -1.550781 17.363281 -0.695312 17.5 -0.03125 L 17.546875 0.328125 L 17.3125 0.328125 L 5.765625 -9.875 L 5.765625 -1.53125 C 5.785156 -1.164062 5.921875 -0.859375 6.171875 -0.609375 C 6.429688 -0.367188 6.757812 -0.25 7.15625 -0.25 L 7.578125 -0.25 L 7.578125 0 L 0.53125 0 L 0.53125 -0.25 L 0.9375 -0.25 C 1.320312 -0.25 1.644531 -0.367188 1.90625 -0.609375 C 2.175781 -0.859375 2.3125 -1.164062 2.3125 -1.53125 L 2.3125 -12.609375 C 2.3125 -13.617188 2.242188 -14.453125 2.109375 -15.109375 L 2.0625 -15.453125 L 2.296875 -15.4375 L 13.8125 -5.28125 L 13.8125 -13.5625 C 13.8125 -13.9375 13.679688 -14.242188 13.421875 -14.484375 C 13.160156 -14.722656 12.835938 -14.84375 12.453125 -14.84375 L 12.03125 -14.84375 Z M 12.03125 -15.109375 "/></g></g></g><g fill="#000000" fill-opacity="1"><g transform="translate(341.157145, 259.289529)"><g><path d="M 9.921875 0.328125 C 7.097656 0.304688 4.878906 -0.390625 3.265625 -1.765625 C 1.660156 -3.148438 0.859375 -5.078125 0.859375 -7.546875 C 0.859375 -10.015625 1.65625 -11.945312 3.25 -13.34375 C 4.851562 -14.738281 7.078125 -15.4375 9.921875 -15.4375 C 12.128906 -15.4375 14.015625 -15.046875 15.578125 -14.265625 L 15.578125 -10.265625 L 15.40625 -10.265625 C 14.988281 -11.765625 14.34375 -12.832031 13.46875 -13.46875 C 12.59375 -14.101562 11.492188 -14.421875 10.171875 -14.421875 C 8.390625 -14.421875 7.03125 -13.8125 6.09375 -12.59375 C 5.15625 -11.382812 4.6875 -9.722656 4.6875 -7.609375 C 4.6875 -5.503906 5.144531 -3.832031 6.0625 -2.59375 C 7.019531 -1.3125 8.320312 -0.671875 9.96875 -0.671875 C 11.15625 -0.671875 12.132812 -0.851562 12.90625 -1.21875 C 13.6875 -1.59375 14.300781 -2.1875 14.75 -3 C 15.207031 -3.820312 15.539062 -4.925781 15.75 -6.3125 L 15.9375 -6.3125 L 16.234375 -2.515625 C 15.710938 -1.660156 14.921875 -0.972656 13.859375 -0.453125 C 12.796875 0.0664062 11.484375 0.328125 9.921875 0.328125 Z M 9.921875 0.328125 "/></g></g></g><g fill="#000000" fill-opacity="1"><g transform="translate(358.316393, 259.289529)"><g><path d="M 4.078125 -0.28125 C 3.722656 0.0703125 3.289062 0.25 2.78125 0.25 C 2.28125 0.25 1.851562 0.0703125 1.5 -0.28125 C 1.15625 -0.632812 0.984375 -1.0625 0.984375 -1.5625 C 0.984375 -2.0625 1.15625 -2.488281 1.5 -2.84375 C 1.851562 -3.207031 2.28125 -3.390625 2.78125 -3.390625 C 3.289062 -3.390625 3.722656 -3.207031 4.078125 -2.84375 C 4.441406 -2.488281 4.625 -2.0625 4.625 -1.5625 C 4.625 -1.0625 4.441406 -0.632812 4.078125 -0.28125 Z M 4.078125 -0.28125 "/></g></g></g><g fill="#ff3131" fill-opacity="1"><g transform="translate(124.324948, 229.655143)"><g><path d="M 93.90625 -119.515625 L 128.21875 -119.515625 L 128.21875 -117.8125 L 126.6875 -117.8125 C 123.84375 -117.8125 121.050781 -116.925781 118.3125 -115.15625 C 115.582031 -113.394531 113.421875 -110.75 111.828125 -107.21875 L 70.6875 -15.203125 C 66.476562 -5.972656 64.375 -0.109375 64.375 2.390625 L 62.828125 2.390625 L 14.859375 -107.046875 C 13.265625 -110.691406 11.070312 -113.394531 8.28125 -115.15625 C 5.488281 -116.925781 2.671875 -117.8125 -0.171875 -117.8125 L -1.53125 -117.8125 L -1.53125 -119.515625 L 36.875 -119.515625 L 36.875 -117.8125 L 35.34375 -117.8125 C 32.945312 -117.8125 31.148438 -117.039062 29.953125 -115.5 C 28.765625 -113.96875 28.171875 -112.546875 28.171875 -111.234375 C 28.171875 -109.921875 28.457031 -108.582031 29.03125 -107.21875 L 64.703125 -17.75 L 101.921875 -107.21875 C 102.378906 -108.582031 102.609375 -109.921875 102.609375 -111.234375 C 102.609375 -112.546875 102.007812 -113.96875 100.8125 -115.5 C 99.625 -117.039062 97.832031 -117.8125 95.4375 -117.8125 L 93.90625 -117.8125 Z M 93.90625 -119.515625 "/></g></g></g><g clip-path="url(#d4b6ecbb09)"><g clip-path="url(#cec085908f)"><path fill="#ff3131" d="M 180.226562 90.179688 L 199.269531 90.179688 L 199.269531 109.21875 L 180.226562 109.21875 Z M 180.226562 90.179688 " fill-opacity="1" fill-rule="nonzero"/></g></g><g clip-path="url(#ffe19d80bc)"><g clip-path="url(#a89cb72649)"><path fill="#004aad" d="M 136.425781 179.367188 L 148.835938 179.367188 L 148.835938 191.773438 L 136.425781 191.773438 Z M 136.425781 179.367188 " fill-opacity="1" fill-rule="nonzero"/></g></g><g clip-path="url(#6dd353119c)"><g clip-path="url(#ba8af64dec)"><path fill="#ff3131" d="M 113.328125 244.480469 L 129.445312 244.480469 L 129.445312 260.597656 L 113.328125 260.597656 Z M 113.328125 244.480469 " fill-opacity="1" fill-rule="nonzero"/></g></g><g fill="#004aad" fill-opacity="1"><g transform="translate(80.215986, 240.410797)"><g><path d="M 41.90625 -1.578125 L 43.953125 -1.578125 L 43.953125 0 L 9.453125 0 L 9.453125 -1.578125 L 11.5 -1.578125 C 14.226562 -1.578125 16.5625 -2.546875 18.5 -4.484375 C 20.445312 -6.429688 21.476562 -8.769531 21.59375 -11.5 L 21.59375 -98.953125 C 21.476562 -101.679688 20.445312 -103.988281 18.5 -105.875 C 16.5625 -107.769531 14.226562 -108.71875 11.5 -108.71875 L 9.453125 -108.71875 L 9.453125 -110.296875 L 43.953125 -110.296875 L 43.953125 -108.71875 L 41.90625 -108.71875 C 39.175781 -108.71875 36.835938 -107.769531 34.890625 -105.875 C 32.953125 -103.988281 31.929688 -101.679688 31.828125 -98.953125 L 31.828125 -11.5 C 31.828125 -8.769531 32.820312 -6.429688 34.8125 -4.484375 C 36.8125 -2.546875 39.175781 -1.578125 41.90625 -1.578125 Z M 105.25 0 L 98.46875 0 C 87.757812 0 79.882812 -2.992188 74.84375 -8.984375 L 36.875 -54.828125 L 74.046875 -101.46875 C 74.890625 -102.519531 75.3125 -103.460938 75.3125 -104.296875 C 75.3125 -105.140625 75.15625 -105.878906 74.84375 -106.515625 C 74 -108.085938 72.472656 -108.875 70.265625 -108.875 L 68.703125 -108.875 L 68.703125 -110.296875 L 101.9375 -110.296875 L 101.9375 -108.875 L 101.3125 -108.875 C 94.375 -108.875 88.703125 -106.40625 84.296875 -101.46875 L 47.265625 -58.609375 L 90.28125 -8.03125 C 94.476562 -3.832031 99.46875 -1.679688 105.25 -1.578125 Z M 105.25 0 "/></g></g></g></svg>